PathFileType	4	(X/Y/Z)	/Users/itak/Documents/Research/Walk-IL/dataset/trc/00211_00009.trc
DataRate	CameraRate	NumFrames	NumMarkers	Units	OrigDataRate	OrigDataStartFrame	OrigNumFrames
100.000000	100.000000	4	53	mm	100.000000	235	627
Frame#	Time	RPSI			LPSI			L3			STRN			T10			C7			CLAV			RBAK			LBAK			LSHO			LUPA			LAEL			LAOL			LWTS			LWPS			LFRA			LIFD			LHPS			RSHO			RUPA			RAEL			RAOL			RWTS			RWPS			RFRA			RIFD			RHTS			RHPS			RBHD			LFHD			RFHD			LBHD			LHIP			RHIP			RASI			LASI			LKNE			LTHI			LANK			LTIP			LTOE			LMT1			LMT5			LHEE			RKNE			RTHI			RANK			RTIP			RTOE			RMT1			RMT5			RHEE			LHTS			
		X1	Y1	Z1	X2	Y2	Z2	X3	Y3	Z3	X4	Y4	Z4	X5	Y5	Z5	X6	Y6	Z6	X7	Y7	Z7	X8	Y8	Z8	X9	Y9	Z9	X10	Y10	Z10	X11	Y11	Z11	X12	Y12	Z12	X13	Y13	Z13	X14	Y14	Z14	X15	Y15	Z15	X16	Y16	Z16	X17	Y17	Z17	X18	Y18	Z18	X19	Y19	Z19	X20	Y20	Z20	X21	Y21	Z21	X22	Y22	Z22	X23	Y23	Z23	X24	Y24	Z24	X25	Y25	Z25	X26	Y26	Z26	X27	Y27	Z27	X28	Y28	Z28	X29	Y29	Z29	X30	Y30	Z30	X31	Y31	Z31	X32	Y32	Z32	X33	Y33	Z33	X34	Y34	Z34	X35	Y35	Z35	X36	Y36	Z36	X37	Y37	Z37	X38	Y38	Z38	X39	Y39	Z39	X40	Y40	Z40	X41	Y41	Z41	X42	Y42	Z42	X43	Y43	Z43	X44	Y44	Z44	X45	Y45	Z45	X46	Y46	Z46	X47	Y47	Z47	X48	Y48	Z48	X49	Y49	Z49	X50	Y50	Z50	X51	Y51	Z51	X52	Y52	Z52	X53	Y53	Z53	

236	2.35	-980.3026123046875	1041.547485351562	-248.1582794189453	-973.956298828125	1049.196411132812	-368.208740234375	-973.400390625	1129.843505859375	-330.6970825195312	-718.22021484375	1305.293090820312	-314.871337890625	-974.6165771484375	1258.874267578125	-331.1978759765625	-898.9175415039062	1515.952392578125	-333.4976501464844	-738.4991455078125	1423.950317382812	-316.4100036621094	-987.0693969726562	1381.666381835938	-268.4266357421875	-910.3410034179688	1478.136474609375	-446.7415771484375	-815.483154296875	1476.609741210938	-491.0584411621094	-823.9413452148438	1359.15869140625	-571.0891723632812	-763.8447265625	1156.175048828125	-596.9849853515625	-841.3478393554688	1124.129272460938	-569.6829833984375	-637.4210815429688	951.9253540039062	-508.4537048339844	-636.6036376953125	929.998291015625	-590.3099975585938	-714.0419311523438	1057.316162109375	-600.5996704101562	-568.4895629882812	768.6642456054688	-505.6806335449219	-595.7325439453125	851.0913696289062	-578.1842041015625	-858.9525756835938	1474.94189453125	-159.0500335693359	-887.84619140625	1411.41455078125	-95.29067230224609	-922.5547485351562	1132.552124023438	-54.06040573120117	-940.3184204101562	1124.351440429688	-147.3000793457031	-781.8217163085938	915.2342529296875	-67.66078186035156	-844.874267578125	904.1694946289062	-11.18483352661133	-899.4497680664062	1064.6103515625	-35.31825256347656	-767.5225219726562	721.1176147460938	-59.91029357910156	-746.48486328125	795.2122802734375	-40.79137802124023	-807.4298706054688	797.1923828125	2.050688982009888	-857.4097900390625	1664.392211914062	-273.14599609375	-652.7844848632812	1715.22802734375	-359.1331481933594	-657.7352905273438	1713.362548828125	-259.1455078125	-806.6630859375	1673.824584960938	-403.3453063964844	-871.1798095703125	984.1234130859375	-506.4922790527344	-883.3760986328125	1005.063659667969	-139.8568420410156	-787.55419921875	1046.960693359375	-176.4614715576172	-770.4069213867188	1025.161987304688	-457.4684143066406	-844.9381103515625	500.2802734375	-429.5566711425781	-845.3440551757812	643.3463134765625	-467.747802734375	-967.1661376953125	37.19730758666992	-375.1280212402344	-912.3572998046875	277.8075256347656	-412.17138671875	-755.6276245117188	44.45913696289062	-311.8323364257812	-824.0759887695312	41.52793121337891	-271.4752502441406	-839.9221801757812	36.86391830444336	-388.3255310058594	-1030.558959960938	49.62164306640625	-325.7370300292969	-684.8361206054688	543.5671997070312	-162.2330169677734	-770.6292724609375	800.5746459960938	-126.4656448364258	-803.8170776367188	61.3923225402832	-148.6015167236328	-678.0755004882812	422.7842712402344	-173.2383270263672	-603.0545043945312	73.07648468017578	-204.4777069091797	-659.4439086914062	64.63378143310547	-244.0465087890625	-693.4811401367188	56.20625305175781	-130.8155059814453	-869.6580810546875	65.77629089355469	-203.1253051757812	-570.3782348632812	867.5308837890625	-515.9884033203125	
237	2.36	-975.8709716796875	1041.275024414062	-247.9737548828125	-969.6224365234375	1048.955200195312	-367.9976806640625	-968.9806518554688	1129.73974609375	-330.5480651855469	-713.4326171875	1304.752319335938	-315.0214538574219	-969.9469604492188	1258.7744140625	-331.0213623046875	-893.8364868164062	1515.683959960938	-333.4966125488281	-733.5211791992188	1423.430297851562	-316.5562438964844	-982.1719360351562	1381.596069335938	-268.3123168945312	-905.4489135742188	1477.865234375	-446.7364501953125	-810.62744140625	1476.14990234375	-491.1403198242188	-819.3623657226562	1358.734985351562	-571.147705078125	-759.49462890625	1155.702392578125	-597.0890502929688	-837.1243896484375	1123.717895507812	-569.914306640625	-633.0951538085938	951.759033203125	-507.8425903320312	-632.05322265625	929.6141357421875	-589.7305908203125	-709.6054077148438	1056.844848632812	-600.4674682617188	-563.8209838867188	768.6389770507812	-504.5277099609375	-591.0751342773438	850.7962646484375	-577.3135375976562	-853.7511596679688	1474.633056640625	-159.0544586181641	-882.6895751953125	1411.131958007812	-95.28587341308594	-918.0945434570312	1132.304077148438	-54.3993034362793	-935.6888427734375	1124.218139648438	-147.690185546875	-778.2870483398438	914.4134521484375	-67.64510345458984	-841.5097045898438	903.6398315429688	-11.32436180114746	-895.3175048828125	1064.296752929688	-35.63015747070312	-764.9951171875	720.1788330078125	-59.88159561157227	-743.6378784179688	794.1640625	-40.73823547363281	-804.629150390625	796.4651489257812	1.99855363368988	-852.1158447265625	1664.09521484375	-273.3716125488281	-647.4170532226562	1714.58056640625	-359.3579711914062	-652.3898315429688	1712.774658203125	-259.3682861328125	-801.37841796875	1673.38720703125	-403.5696716308594	-867.3587036132812	983.88525390625	-506.5519409179688	-878.8511962890625	1004.772521972656	-139.8666381835938	-782.9848022460938	1046.626586914062	-176.5490112304688	-766.221923828125	1024.739135742188	-457.5955505371094	-843.7434692382812	500.0234375	-429.6749572753906	-843.0396118164062	643.1115112304688	-467.8270263671875	-967.152587890625	37.24596786499023	-375.0536499023438	-911.86767578125	277.8271484375	-412.2086181640625	-755.6339721679688	44.45425415039062	-311.8817749023438	-824.15771484375	41.47637557983398	-271.4622802734375	-839.9301147460938	36.82588195800781	-388.4062194824219	-1030.493286132812	49.78688812255859	-325.6678771972656	-678.3545532226562	544.3271484375	-162.8485717773438	-765.7557983398438	800.6719970703125	-126.4656295776367	-783.2376708984375	58.60946273803711	-151.6979370117188	-668.5387573242188	423.5995483398438	-174.5051727294922	-583.06005859375	74.73129272460938	-209.1028594970703	-639.6861572265625	65.32929229736328	-248.3347778320312	-672.6043090820312	55.73049545288086	-134.9923095703125	-849.5424194335938	61.90410232543945	-205.6628570556641	-565.8881225585938	867.452392578125	-515.145263671875	
238	2.37	-971.3779296875	1040.948120117188	-247.7903442382812	-965.2150268554688	1048.656005859375	-367.7767639160156	-964.4891967773438	1129.586303710938	-330.3811950683594	-708.6008911132812	1304.181518554688	-315.1482238769531	-965.2175903320312	1258.624755859375	-330.8226318359375	-888.7066040039062	1515.378173828125	-333.4474182128906	-728.4972534179688	1422.872924804688	-316.6716918945312	-977.2310180664062	1381.478149414062	-268.1529846191406	-900.5216674804688	1477.563110351562	-446.6823425292969	-805.74169921875	1475.655151367188	-491.1856079101562	-814.7799682617188	1358.276733398438	-571.168701171875	-755.2237548828125	1155.163940429688	-597.156982421875	-832.9876098632812	1123.284057617188	-570.0951538085938	-628.967529296875	951.4173583984375	-507.2787475585938	-627.7374877929688	929.0833740234375	-589.1868896484375	-705.3177490234375	1056.277954101562	-600.3225708007812	-559.5438232421875	768.3712768554688	-503.4681701660156	-586.7220458984375	850.3201293945312	-576.5074462890625	-848.5010986328125	1474.275756835938	-159.0242767333984	-877.4578247070312	1410.79296875	-95.23490905761719	-913.5579833984375	1131.9892578125	-54.74176406860352	-930.9498901367188	1124.021362304688	-148.0875549316406	-774.66259765625	913.54248046875	-67.56214904785156	-838.0768432617188	903.0578002929688	-11.43221378326416	-891.1119384765625	1063.92333984375	-35.94082641601562	-762.3700561523438	719.1981201171875	-59.78869247436523	-740.7040405273438	793.0630493164062	-40.61060333251953	-801.7687377929688	795.6851196289062	1.999084830284119	-846.771240234375	1663.775268554688	-273.5568237304688	-641.99072265625	1713.874755859375	-359.5609130859375	-646.9692993164062	1712.127319335938	-259.5730285644531	-796.0361938476562	1672.920654296875	-403.7633056640625	-863.4103393554688	983.6016845703125	-506.5886535644531	-874.274658203125	1004.415222167969	-139.8637084960938	-778.366455078125	1046.240478515625	-176.599365234375	-761.9437866210938	1024.287475585938	-457.6729736328125	-842.5091552734375	499.7764892578125	-429.7745666503906	-840.6822509765625	642.8778076171875	-467.8883361816406	-967.1322631835938	37.30125045776367	-374.9689025878906	-911.3729248046875	277.8543395996094	-412.2414855957031	-755.6287841796875	44.44234848022461	-311.9244384765625	-824.2255859375	41.42950439453125	-271.4541931152344	-839.9319458007812	36.78961563110352	-388.4820251464844	-1030.408569335938	49.96377182006836	-325.5841979980469	-672.0616455078125	544.9608154296875	-163.3515319824219	-760.9086303710938	800.6980590820312	-126.4054870605469	-763.0364379882812	56.14505004882812	-155.2232971191406	-659.235107421875	424.3604736328125	-175.7223663330078	-563.4658813476562	76.45710754394531	-213.9028472900391	-620.2789306640625	66.18800354003906	-252.8712768554688	-652.17724609375	55.40936660766602	-139.4391021728516	-829.7009887695312	58.51625442504883	-208.7047729492188	-561.676025390625	867.146728515625	-514.3593139648438	
239	2.38	-966.8087768554688	1040.567138671875	-247.60009765625	-960.726318359375	1048.300415039062	-367.5484924316406	-959.9295043945312	1129.376708984375	-330.1957397460938	-703.7242431640625	1303.578125	-315.2524719238281	-960.4306030273438	1258.421752929688	-330.599365234375	-883.53076171875	1515.032470703125	-333.351806640625	-723.4307861328125	1422.278198242188	-316.7566833496094	-972.2373657226562	1381.3056640625	-267.95068359375	-895.5556640625	1477.227294921875	-446.5799865722656	-800.8240356445312	1475.12548828125	-491.1941833496094	-810.1903686523438	1357.782958984375	-571.1521606445312	-751.0248413085938	1154.558837890625	-597.1886596679688	-828.9258422851562	1122.827026367188	-570.2239990234375	-625.0365600585938	950.8939208984375	-506.7657165527344	-623.651123046875	928.40087890625	-588.682861328125	-701.1741333007812	1055.614501953125	-600.1674194335938	-555.6471557617188	767.8568115234375	-502.5129699707031	-582.6730346679688	849.6563110351562	-575.7739868164062	-843.21044921875	1473.869262695312	-158.9632873535156	-872.1599731445312	1410.39501953125	-95.14213562011719	-908.945068359375	1131.607666015625	-55.07991027832031	-926.102294921875	1123.758056640625	-148.4829254150391	-770.9389038085938	912.6219482421875	-67.41526031494141	-834.5647583007812	902.4225463867188	-11.5053768157959	-886.82666015625	1063.490600585938	-36.24229049682617	-759.6192016601562	718.1795654296875	-59.62281799316406	-737.6591186523438	791.9207763671875	-40.40140914916992	-798.8338623046875	794.8587646484375	2.054291009902954	-841.384033203125	1663.424438476562	-273.697509765625	-636.517578125	1713.116577148438	-359.7391052246094	-641.484375	1711.422607421875	-259.756103515625	-790.6414184570312	1672.422729492188	-403.919921875	-859.3270263671875	983.2738647460938	-506.5987854003906	-869.6273803710938	1003.991760253906	-139.8469390869141	-773.6876831054688	1045.798095703125	-176.6164093017578	-757.5713500976562	1023.809936523438	-457.7085571289062	-841.2369995117188	499.5399780273438	-429.8609619140625	-838.2711181640625	642.6429443359375	-467.9328308105469	-967.1076049804688	37.36481857299805	-374.8746032714844	-910.8828125	277.8930358886719	-412.2760009765625	-755.6103515625	44.42311477661133	-311.9593811035156	-824.2705078125	41.40324783325195	-271.462158203125	-839.92626953125	36.75360107421875	-388.5530700683594	-1030.312133789062	50.15579605102539	-325.4885559082031	-665.9609375	545.4468994140625	-163.75244140625	-756.0611572265625	800.655517578125	-126.2797164916992	-743.2652587890625	53.96310424804688	-159.1437835693359	-650.1958618164062	425.0428771972656	-176.8777160644531	-544.2904663085938	78.30180358886719	-218.7205657958984	-601.2049560546875	67.24073791503906	-257.5265808105469	-632.2560424804688	55.23891448974609	-144.0551910400391	-810.1549072265625	55.54808044433594	-212.2557525634766	-557.7357177734375	866.6060180664062	-513.6355590820312	
